<svg
  xmlns="http://www.w3.org/2000/svg"
  viewBox="0 0 480 270"
  preserveAspectRatio="xMidYMid slice"
  role="img"
  aria-label="Rescue Marksman 3D preview"
>
  <defs>
    <linearGradient id="rmBg" x1="0" y1="0" x2="1" y2="1">
      <stop offset="0%" stop-color="#101b31" />
      <stop offset="60%" stop-color="#080d18" />
      <stop offset="100%" stop-color="#180b24" />
    </linearGradient>
    <linearGradient id="rmStreet" x1="0" y1="0" x2="0" y2="1">
      <stop offset="0%" stop-color="#0c1322" />
      <stop offset="100%" stop-color="#070a14" />
    </linearGradient>
    <linearGradient id="rmGround" x1="0" y1="0" x2="0" y2="1">
      <stop offset="0%" stop-color="#1d2538" />
      <stop offset="100%" stop-color="#0a0f1c" />
    </linearGradient>
  </defs>

  <rect width="480" height="270" fill="url(#rmBg)" />

  <g fill="rgba(255,255,255,0.07)">
    <rect x="36" y="56" width="80" height="170" rx="6" />
    <rect x="124" y="32" width="92" height="194" rx="6" />
    <rect x="232" y="62" width="78" height="164" rx="6" />
    <rect x="324" y="38" width="100" height="188" rx="6" />
  </g>

  <g fill="#6ee7ff" opacity="0.55">
    <rect x="50" y="78" width="14" height="10" rx="2" />
    <rect x="74" y="78" width="14" height="10" rx="2" />
    <rect x="98" y="78" width="14" height="10" rx="2" />
    <rect x="50" y="104" width="14" height="10" rx="2" />
    <rect x="74" y="104" width="14" height="10" rx="2" />
    <rect x="98" y="104" width="14" height="10" rx="2" />
    <rect x="142" y="58" width="16" height="12" rx="2" />
    <rect x="170" y="58" width="16" height="12" rx="2" />
    <rect x="198" y="58" width="16" height="12" rx="2" />
    <rect x="142" y="86" width="16" height="12" rx="2" />
    <rect x="170" y="86" width="16" height="12" rx="2" />
    <rect x="198" y="86" width="16" height="12" rx="2" />
    <rect x="246" y="86" width="14" height="10" rx="2" />
    <rect x="270" y="86" width="14" height="10" rx="2" />
    <rect x="294" y="86" width="14" height="10" rx="2" />
    <rect x="340" y="64" width="16" height="12" rx="2" />
    <rect x="368" y="64" width="16" height="12" rx="2" />
    <rect x="396" y="64" width="16" height="12" rx="2" />
    <rect x="340" y="92" width="16" height="12" rx="2" />
    <rect x="368" y="92" width="16" height="12" rx="2" />
    <rect x="396" y="92" width="16" height="12" rx="2" />
  </g>

  <rect x="0" y="200" width="480" height="70" fill="url(#rmGround)" />
  <rect x="0" y="200" width="480" height="3" fill="#3aa0c8" opacity="0.55" />
  <g stroke="#7dd3fc" stroke-width="2" opacity="0.45">
    <line x1="60" y1="234" x2="100" y2="234" />
    <line x1="160" y1="234" x2="200" y2="234" />
    <line x1="260" y1="234" x2="300" y2="234" />
    <line x1="360" y1="234" x2="400" y2="234" />
  </g>

  <g>
    <ellipse cx="124" cy="238" rx="22" ry="4" fill="#000" opacity="0.4" />
    <path d="M104 232 Q124 188 144 232 Z" fill="#22c55e" />
    <circle cx="116" cy="218" r="3" fill="#0b1020" />
    <circle cx="132" cy="218" r="3" fill="#0b1020" />
    <path d="M114 226 Q124 234 134 226" stroke="#0b1020" stroke-width="2" fill="none" stroke-linecap="round" />
    <path d="M108 200 L112 196 M120 195 L122 188 M132 195 L130 188 M144 200 L140 196" stroke="#15803d" stroke-width="2" stroke-linecap="round" />
  </g>

  <g>
    <ellipse cx="208" cy="244" rx="20" ry="4" fill="#000" opacity="0.4" />
    <rect x="194" y="208" width="28" height="36" rx="6" fill="#fb7185" />
    <circle cx="208" cy="200" r="14" fill="#fda4af" />
    <rect x="200" y="194" width="6" height="3" rx="1" fill="#0b1020" />
    <rect x="210" y="194" width="6" height="3" rx="1" fill="#0b1020" />
    <path d="M198 218 L194 226 M218 218 L222 226" stroke="#9f1239" stroke-width="3" stroke-linecap="round" />
  </g>

  <g>
    <ellipse cx="318" cy="244" rx="32" ry="5" fill="#000" opacity="0.45" />
    <rect x="296" y="194" width="44" height="50" rx="10" fill="#dc2626" />
    <rect x="298" y="200" width="40" height="14" rx="4" fill="#7f1d1d" />
    <circle cx="318" cy="184" r="18" fill="#fda4af" />
    <rect x="308" y="178" width="8" height="3" rx="1" fill="#0b1020" />
    <rect x="320" y="178" width="8" height="3" rx="1" fill="#0b1020" />
    <path d="M306 192 L308 188 M328 192 L330 188" stroke="#0b1020" stroke-width="2" stroke-linecap="round" />
    <path d="M308 168 L302 158 M328 168 L334 158" stroke="#7f1d1d" stroke-width="3" stroke-linecap="round" />
  </g>

  <g>
    <ellipse cx="402" cy="158" rx="18" ry="3" fill="#000" opacity="0.35" />
    <ellipse cx="402" cy="146" rx="20" ry="14" fill="#a855f7" />
    <ellipse cx="402" cy="138" rx="14" ry="9" fill="#c084fc" />
    <circle cx="396" cy="140" r="2.5" fill="#0b1020" />
    <circle cx="408" cy="140" r="2.5" fill="#0b1020" />
    <path d="M384 144 Q378 138 380 132" stroke="#a855f7" stroke-width="3" fill="none" stroke-linecap="round" />
    <path d="M420 144 Q426 138 424 132" stroke="#a855f7" stroke-width="3" fill="none" stroke-linecap="round" />
  </g>

  <g fill="none" stroke="#d8f6ff" stroke-width="3" stroke-linecap="round" opacity="0.92">
    <circle cx="240" cy="135" r="78" />
    <circle cx="240" cy="135" r="3" fill="#d8f6ff" />
    <line x1="240" y1="50" x2="240" y2="92" />
    <line x1="240" y1="178" x2="240" y2="220" />
    <line x1="155" y1="135" x2="197" y2="135" />
    <line x1="283" y1="135" x2="325" y2="135" />
  </g>
  <circle cx="240" cy="135" r="78" fill="none" stroke="#fb7185" stroke-width="1.5" opacity="0.55" />

  <g fill="#d8f6ff" opacity="0.86" font-family="ui-monospace, SFMono-Regular, Menlo, monospace" font-size="11">
    <text x="22" y="244">SHOTS 5  HOSTILES 4  CIVILIANS 2  TIME 75s</text>
    <text x="22" y="260">3D MONSTER BIOME &#183; PROTECT BLUE &#183; CLEAR RED</text>
  </g>
</svg>
